<svg xmlns="http://www.w3.org/2000/svg" width="121.698" height="41.75" viewBox="0 0 121.698 41.75">
  <g id="Grupo_10" data-name="Grupo 10" transform="translate(-125.167 -279.278)">
    <path id="path16" d="M140.086,308.461q-7.789,0-11.019-3.534t-2.146-10.858q1.085-7.327,5.362-10.858t12.065-3.528h8.268l.045,4.693h-9.008q-4.983,0-7.731,2.384t-3.48,7.309q-.732,4.942,1.312,7.33t7.025,2.384h9.008l-1.433,4.679Zm27.695.4q-7.81,0-11.034-3.624t-2.113-11.173q1.117-7.543,5.421-11.166t12.107-3.624q7.738,0,10.958,3.624t2.1,11.166q-1.119,7.552-5.409,11.173t-12.032,3.624Zm.716-4.836q5.076,0,7.738-2.384t3.43-7.577q.767-5.179-1.19-7.556t-7.033-2.377q-5.128,0-7.8,2.377-2.686,2.384-3.448,7.556t1.208,7.569q1.969,2.384,7.092,2.391Zm46.259,4.432h-6.542l-5.144-8.748h-7.207l-1.3,8.748H189.19l4.262-28.779h12.865q6.083,0,8.812,2.665t2.052,7.33a11.271,11.271,0,0,1-2.586,5.85,11.486,11.486,0,0,1-5.619,3.439Zm-16.622-24.086-1.569,10.6h7.165a9.761,9.761,0,0,0,5.614-1.322,5.6,5.6,0,0,0,2.274-3.973,4.173,4.173,0,0,0-1.1-3.966q-1.487-1.336-5.221-1.336Zm22.106,24.086,4.261-28.779h22.353l.011,4.693h-17.64l-1.058,7.145h14.427l-.671,4.535H227.5l-1.144,7.727h18l-1.4,4.679Z" fill="#fff" fill-rule="evenodd"/>
    <path id="path18" d="M127.112,315.154l-.864,5.835h-1.081l.864-5.835Zm.477,5.835.864-5.835h1.081l2.451,4.251.63-4.251h1.04l-.864,5.835h-1.082l-2.436-4.341-.643,4.341Zm11.236-5.835-.138.93h-2.757l-.217,1.469h2.62l-.143.968h-2.632l-.365,2.468h-1.06l.864-5.835ZM139,320.98l.863-5.826h2.652q1.786,0,1.555,1.564-.156,1.055-1.65,1.749l1.475,2.522h-1.362l-1.4-2.542.073-.494q1.589-.265,1.728-1.2c.064-.43-.145-.645-.63-.645h-1.481l-.722,4.875Zm6.121.008h-1.11l3.342-5.835h1.163l1.665,5.835h-1.163l-.43-1.592H146.65l.509-.937h1.175l-.593-2.192Zm10.749-5.835-.138.93H152.81l-.217,1.469h2.783l-.143.968h-2.795l-.227,1.529H155.2l-.139.939h-4.051l.864-5.835Zm.243,5.59.145-.979a5.276,5.276,0,0,0,1.935.326q1.343,0,1.475-.9.1-.654-.728-.653h-.914q-1.792,0-1.549-1.632.266-1.794,2.815-1.795a5.592,5.592,0,0,1,1.814.286l-.145.979a4.9,4.9,0,0,0-1.808-.326q-1.469,0-1.6.856-.1.654.613.653h.914q1.905,0,1.663,1.632-.272,1.836-2.695,1.835a5.991,5.991,0,0,1-1.941-.285Zm10.085-5.59-.139.939h-1.672l-.725,4.9h-1.082l.725-4.9h-1.673l.139-.939Zm-.133,5.826.863-5.826h2.652q1.786,0,1.555,1.564-.157,1.055-1.65,1.749l1.475,2.522H169.6l-1.4-2.542.073-.494q1.589-.265,1.728-1.2c.064-.43-.145-.645-.63-.645h-1.481l-.722,4.875Zm5.862-2.285.525-3.541h1.081l-.524,3.541q-.207,1.4,1.221,1.4a1.478,1.478,0,0,0,1.635-1.4l.524-3.541h1.081l-.524,3.541a2.536,2.536,0,0,1-2.855,2.334Q171.581,321.029,171.927,318.695Zm10.7-3.541-.139.939h-1.673l-.725,4.9h-1.082l.725-4.9h-1.672l.139-.939Zm.206,3.541.524-3.541h1.081l-.524,3.541q-.207,1.4,1.221,1.4a1.478,1.478,0,0,0,1.635-1.4l.525-3.541h1.081l-.524,3.541a2.536,2.536,0,0,1-2.855,2.334Q182.484,321.029,182.83,318.695Zm6.021,2.285.863-5.826h2.652q1.786,0,1.555,1.564-.156,1.055-1.65,1.749l1.475,2.522h-1.362l-1.4-2.542.073-.494q1.589-.265,1.728-1.2c.064-.43-.145-.645-.63-.645h-1.481l-.722,4.875Zm6.121.008h-1.11l3.342-5.835h1.163l1.665,5.835h-1.163l-.43-1.592H196.5l.509-.937h1.175l-.593-2.192Zm10.149-.939q1.816,0,2.133-2.137.27-1.819-1.546-1.82h-1.2l-.586,3.957Zm-2.423.939.864-5.835h2.284q2.9,0,2.488,2.759-.455,3.077-3.352,3.076Zm11.075-5.835-.138.93h-2.922l-.217,1.469h2.782l-.143.968h-2.795l-.227,1.529h2.991l-.139.939h-4.051l.864-5.835Zm2.147,5.826.863-5.826h2.652q1.786,0,1.555,1.564-.156,1.055-1.65,1.749l1.475,2.522h-1.362l-1.4-2.542.073-.494q1.589-.265,1.728-1.2c.064-.43-.145-.645-.63-.645h-1.482l-.722,4.875Zm10.38-5.826-.137.93h-2.922l-.217,1.469h2.783l-.143.968h-2.795l-.227,1.529h2.991l-.139.939h-4.051l.864-5.835Zm2.733,4.9q1.815,0,2.133-2.137.269-1.819-1.547-1.82h-1.2l-.586,3.957Zm-2.423.939.864-5.835h2.284q2.9,0,2.488,2.759-.455,3.077-3.352,3.076Zm11.075-5.835-.138.93h-2.922l-.217,1.469h2.783l-.143.968h-2.795l-.226,1.529h2.991l-.139.939h-4.051l.864-5.835Zm.244,5.59.145-.979a5.276,5.276,0,0,0,1.935.326q1.343,0,1.475-.9.1-.654-.728-.653h-.913q-1.792,0-1.549-1.632.266-1.794,2.815-1.795a5.593,5.593,0,0,1,1.814.286l-.145.979a4.9,4.9,0,0,0-1.808-.326q-1.469,0-1.6.856-.1.654.613.653h.914q1.9,0,1.663,1.632-.272,1.836-2.695,1.835A5.989,5.989,0,0,1,237.929,320.743Z" fill="#fff" fill-rule="evenodd"/>
  </g>
</svg>
